<svg width="512" height="512" viewBox="0 0 512 512" fill="none" xmlns="http://www.w3.org/2000/svg">
<path fill-rule="evenodd" clip-rule="evenodd" d="M184.499 118.016C184.83 126.409 189.793 130.936 198.098 130.692C198.566 130.681 199.034 130.684 199.588 130.688C199.9 130.69 200.24 130.692 200.623 130.692L200.64 130.71C200.64 134.259 200.637 137.788 200.635 141.302L200.635 141.308V141.31C200.628 149.86 199.977 169.276 200.01 177.719H217.422L217.362 140.39C217.368 135.237 217.422 129.767 217.422 124.613C217.422 123.456 217.5 122.285 217.422 121.13C217.283 119.163 215.928 118.138 213.978 118.138C213.273 118.138 212.567 118.13 211.862 118.121C211.157 118.112 210.452 118.103 209.747 118.103C202.799 118.034 200.483 115.3 201.424 107.987H309.378L309.395 108.022C310.492 114.325 307.672 117.894 301.595 118.138C296.348 118.336 293.725 121.116 293.725 126.479L293.731 133.192V176.849H309.706C309.722 169.648 310.169 152.364 310.151 145.163C310.141 141.402 310.131 137.64 310.127 133.879V130.675C310.56 130.675 310.936 130.668 311.274 130.662C311.859 130.651 312.334 130.642 312.808 130.675C321.061 131.232 326.198 126.479 326.268 118.173C326.283 116.173 326.288 114.173 326.293 112.173C326.3 109.507 326.307 106.84 326.337 104.174C326.424 95.5549 322.611 91.5501 313.975 91.5501C274.467 91.5153 234.977 91.5327 195.486 91.5501C188.661 91.5501 184.586 95.5027 184.43 102.398C184.308 107.604 184.29 112.81 184.499 118.016Z" fill="#5100FF"/>
<path d="M255.209 48.074C267.032 48.074 278.855 48.283 290.678 48.0044C300.098 47.7954 305.426 55.0911 302.883 62.9613C300.655 69.8564 298.635 76.8386 296.633 83.8208C295.954 86.1889 294.456 86.6764 292.245 86.6416C282.599 86.5023 272.935 86.3978 263.289 86.4326C248.541 86.4849 233.793 86.5545 219.062 86.8331C215.945 86.9028 214.552 85.771 213.786 82.9502C211.767 75.4457 209.433 68.0108 207.588 60.454C206.09 54.3598 209.938 49.2232 216.172 48.3526C217.774 48.1263 219.41 48.0566 221.03 48.0566C232.417 48.0392 243.805 48.0566 255.192 48.0566C255.192 48.0566 255.192 48.0566 255.192 48.074H255.209Z" fill="#5100FF"/>
<path d="M224.338 244.359C224.372 254.145 216.206 262.503 206.508 262.625C196.478 262.729 187.772 254.093 187.807 244.046C187.825 234.661 196.287 226.338 205.846 226.321C215.701 226.286 224.32 234.696 224.355 244.359H224.338Z" fill="#5100FF"/>
<path d="M255.871 121.622C263.027 121.622 270.166 121.674 277.322 121.605C280.317 121.57 281.71 122.475 281.693 125.888C281.693 134.733 281.432 135.151 272.447 135.134C260.206 135.116 247.966 135.134 235.725 135.134C230.867 135.134 229.387 133.671 229.283 128.796C229.126 121.831 229.335 121.605 236.369 121.587C242.864 121.587 249.376 121.587 255.871 121.587V121.64V121.622Z" fill="#5100FF"/>
<path d="M248.262 222.803C248.227 227.94 244.118 232.032 238.981 232.049C233.531 232.049 229.265 227.87 229.248 222.455C229.23 217.493 233.879 213.018 238.946 213.14C244.118 213.244 248.297 217.597 248.244 222.821L248.262 222.803Z" fill="#5100FF"/>
<path d="M305.687 262.781C301.595 262.781 297.869 259.003 297.869 254.824C297.869 250.419 301.299 247.041 305.739 247.058C310.092 247.076 313.505 250.541 313.522 254.946C313.557 259.247 310.04 262.764 305.687 262.781Z" fill="#5100FF"/>
<path d="M282.7 286.597C278.608 286.597 274.882 282.818 274.882 278.639C274.882 274.234 278.312 270.856 282.752 270.873C287.105 270.891 290.518 274.356 290.535 278.761C290.57 283.062 287.053 286.579 282.7 286.597Z" fill="#5100FF"/>
<path fill-rule="evenodd" clip-rule="evenodd" d="M293.729 167.623L293.769 185.718L374.424 232.139C377.123 233.692 378.787 236.57 378.787 239.684V371.719C378.787 374.829 377.128 377.703 374.434 379.258L260.082 445.279C257.388 446.835 254.07 446.835 251.376 445.279L137.024 379.258C134.33 377.703 132.671 374.829 132.671 371.719V239.676C132.671 236.566 134.33 233.692 137.024 232.137L217.422 185.718V167.623L121.353 223.089C118.659 224.644 117 227.518 117 230.629V380.766C117 383.877 118.659 386.751 121.353 388.306L251.376 463.375C254.07 464.93 257.388 464.93 260.082 463.375L390.105 388.306C392.798 386.751 394.458 383.877 394.458 380.766V230.636C394.458 227.522 392.794 224.645 390.095 223.091L293.729 167.623Z" fill="#5100FF"/>
<path fill-rule="evenodd" clip-rule="evenodd" d="M360.724 356.705V282.889C357.389 281.988 352.352 284.62 345.115 288.401C337.444 292.408 327.302 297.707 314.093 301.461C273.049 315.174 227.91 294.072 216.177 287.954C214.197 286.922 212.358 285.737 210.438 284.597C201.046 279.024 170.383 263.456 151.123 284.631C151.123 308.658 150.982 332.676 151.123 356.705C151.123 361.682 153.778 366.28 158.088 368.769L248.959 421.233C253.269 423.721 258.579 423.721 262.888 421.233L353.759 368.769C358.069 366.28 360.724 361.682 360.724 356.705Z" fill="#5100FF"/>
</svg>
