<svg width="512" height="512" viewBox="0 0 512 512" fill="none" xmlns="http://www.w3.org/2000/svg">
<path fill-rule="evenodd" clip-rule="evenodd" d="M172.309 93.5321C172.697 103.425 178.528 108.761 188.287 108.474C188.836 108.461 189.386 108.464 190.037 108.469C190.404 108.471 190.803 108.474 191.253 108.474L191.273 108.494C191.273 112.678 191.27 116.838 191.267 120.981L191.267 120.99C191.259 131.068 190.494 153.955 190.533 163.907H210.992L210.921 119.905C210.927 113.831 210.992 107.384 210.992 101.308C210.992 99.9445 211.083 98.5638 210.992 97.2028C210.828 94.8836 209.236 93.6758 206.944 93.6758C206.116 93.6758 205.287 93.6655 204.459 93.6553C203.63 93.645 202.802 93.6347 201.973 93.6347C193.81 93.5526 191.089 90.3303 192.194 81.71H319.035L319.056 81.7511C320.345 89.1809 317.03 93.3884 309.891 93.6758C303.726 93.9084 300.643 97.1855 300.643 103.507L300.651 111.42V162.881H319.421C319.44 154.393 319.965 134.02 319.943 125.532C319.932 121.098 319.921 116.664 319.915 112.23V108.453C320.425 108.453 320.865 108.445 321.263 108.438C321.951 108.425 322.508 108.414 323.066 108.453C332.763 109.11 338.798 103.507 338.88 93.7168C338.897 91.3593 338.904 89.0017 338.91 86.6442C338.918 83.5012 338.927 80.3582 338.962 77.2152C339.064 67.0555 334.584 62.3349 324.436 62.3349C278.017 62.2939 231.617 62.3144 185.218 62.3349C177.198 62.3349 172.411 66.994 172.227 75.1217C172.084 81.2585 172.063 87.3953 172.309 93.5321Z" fill="#5100FF"/>
<path fill-rule="evenodd" clip-rule="evenodd" d="M172.309 93.5321C172.697 103.425 178.528 108.761 188.287 108.474C188.836 108.461 189.386 108.464 190.037 108.469C190.404 108.471 190.803 108.474 191.253 108.474L191.273 108.494C191.273 112.678 191.27 116.838 191.267 120.981L191.267 120.99C191.259 131.068 190.494 153.955 190.533 163.907H210.992L210.921 119.905C210.927 113.831 210.992 107.384 210.992 101.308C210.992 99.9445 211.083 98.5638 210.992 97.2028C210.828 94.8836 209.236 93.6758 206.944 93.6758C206.116 93.6758 205.287 93.6655 204.459 93.6553C203.63 93.645 202.802 93.6347 201.973 93.6347C193.81 93.5526 191.089 90.3303 192.194 81.71H319.035L319.056 81.7511C320.345 89.1809 317.03 93.3884 309.891 93.6758C303.726 93.9084 300.643 97.1855 300.643 103.507L300.651 111.42V162.881H319.421C319.44 154.393 319.965 134.02 319.943 125.532C319.932 121.098 319.921 116.664 319.915 112.23V108.453C320.425 108.453 320.865 108.445 321.263 108.438C321.951 108.425 322.508 108.414 323.066 108.453C332.763 109.11 338.798 103.507 338.88 93.7168C338.897 91.3593 338.904 89.0017 338.91 86.6442C338.918 83.5012 338.927 80.3582 338.962 77.2152C339.064 67.0555 334.584 62.3349 324.436 62.3349C278.017 62.2939 231.617 62.3144 185.218 62.3349C177.198 62.3349 172.411 66.994 172.227 75.1217C172.084 81.2585 172.063 87.3953 172.309 93.5321Z" fill="url(#paint0_linear_26_22)"/>
<path d="M255.39 11.0873C269.281 11.0873 283.172 11.3336 297.063 11.0052C308.131 10.7589 314.391 19.3586 311.404 28.6357C308.786 36.7634 306.413 44.9937 304.06 53.224C303.262 56.0153 301.503 56.59 298.904 56.549C287.57 56.3848 276.216 56.2616 264.882 56.3027C247.554 56.3643 230.226 56.4464 212.918 56.7748C209.256 56.8569 207.62 55.5228 206.719 52.1978C204.346 43.3517 201.605 34.5878 199.436 25.6802C197.677 18.4966 202.198 12.4419 209.522 11.4157C211.404 11.1488 213.327 11.0667 215.23 11.0667C228.61 11.0462 241.989 11.0667 255.369 11.0667C255.369 11.0667 255.369 11.0667 255.369 11.0873H255.39Z" fill="#5100FF"/>
<path d="M255.39 11.0873C269.281 11.0873 283.172 11.3336 297.063 11.0052C308.131 10.7589 314.391 19.3586 311.404 28.6357C308.786 36.7634 306.413 44.9937 304.06 53.224C303.262 56.0153 301.503 56.59 298.904 56.549C287.57 56.3848 276.216 56.2616 264.882 56.3027C247.554 56.3643 230.226 56.4464 212.918 56.7748C209.256 56.8569 207.62 55.5228 206.719 52.1978C204.346 43.3517 201.605 34.5878 199.436 25.6802C197.677 18.4966 202.198 12.4419 209.522 11.4157C211.404 11.1488 213.327 11.0667 215.23 11.0667C228.61 11.0462 241.989 11.0667 255.369 11.0667C255.369 11.0667 255.369 11.0667 255.369 11.0873H255.39Z" fill="url(#paint1_linear_26_22)"/>
<path d="M219.117 242.46C219.158 253.995 209.563 263.846 198.167 263.99C186.384 264.113 176.154 253.933 176.195 242.09C176.216 231.028 186.158 221.217 197.39 221.196C208.969 221.155 219.096 231.069 219.137 242.46H219.117Z" fill="#5100FF"/>
<path d="M219.117 242.46C219.158 253.995 209.563 263.846 198.167 263.99C186.384 264.113 176.154 253.933 176.195 242.09C176.216 231.028 186.158 221.217 197.39 221.196C208.969 221.155 219.096 231.069 219.137 242.46H219.117Z" fill="url(#paint2_linear_26_22)"/>
<path d="M256.167 97.7825C264.575 97.7825 272.963 97.8441 281.371 97.762C284.89 97.721 286.527 98.7882 286.506 102.811C286.506 113.237 286.2 113.73 275.643 113.71C261.261 113.689 246.879 113.71 232.497 113.71C226.789 113.71 225.05 111.985 224.927 106.239C224.743 98.0288 224.988 97.762 233.254 97.7415C240.884 97.7415 248.536 97.7415 256.167 97.7415V97.8031V97.7825Z" fill="#5100FF"/>
<path d="M256.167 97.7825C264.575 97.7825 272.963 97.8441 281.371 97.762C284.89 97.721 286.527 98.7882 286.506 102.811C286.506 113.237 286.2 113.73 275.643 113.71C261.261 113.689 246.879 113.71 232.497 113.71C226.789 113.71 225.05 111.985 224.927 106.239C224.743 98.0288 224.988 97.762 233.254 97.7415C240.884 97.7415 248.536 97.7415 256.167 97.7415V97.8031V97.7825Z" fill="url(#paint3_linear_26_22)"/>
<path d="M247.226 217.05C247.186 223.105 242.357 227.928 236.322 227.949C229.919 227.949 224.906 223.023 224.886 216.64C224.866 210.79 230.328 205.516 236.281 205.659C242.357 205.782 247.267 210.914 247.206 217.071L247.226 217.05Z" fill="#5100FF"/>
<path d="M247.226 217.05C247.186 223.105 242.357 227.928 236.322 227.949C229.919 227.949 224.906 223.023 224.886 216.64C224.866 210.79 230.328 205.516 236.281 205.659C242.357 205.782 247.267 210.914 247.206 217.071L247.226 217.05Z" fill="url(#paint4_linear_26_22)"/>
<path d="M314.698 264.175C309.89 264.175 305.512 259.721 305.512 254.795C305.512 249.602 309.543 245.621 314.76 245.641C319.874 245.662 323.884 249.746 323.904 254.939C323.945 260.008 319.813 264.154 314.698 264.175Z" fill="#5100FF"/>
<path d="M314.698 264.175C309.89 264.175 305.512 259.721 305.512 254.795C305.512 249.602 309.543 245.621 314.76 245.641C319.874 245.662 323.884 249.746 323.904 254.939C323.945 260.008 319.813 264.154 314.698 264.175Z" fill="url(#paint5_linear_26_22)"/>
<path d="M287.69 292.247C282.882 292.247 278.504 287.793 278.504 282.867C278.504 277.675 282.534 273.693 287.751 273.713C292.866 273.734 296.876 277.818 296.896 283.011C296.937 288.081 292.804 292.227 287.69 292.247Z" fill="#5100FF"/>
<path d="M287.69 292.247C282.882 292.247 278.504 287.793 278.504 282.867C278.504 277.675 282.534 273.693 287.751 273.713C292.866 273.734 296.876 277.818 296.896 283.011C296.937 288.081 292.804 292.227 287.69 292.247Z" fill="url(#paint6_linear_26_22)"/>
<path fill-rule="evenodd" clip-rule="evenodd" d="M300.649 152.007L300.695 173.336L395.461 228.054C398.633 229.886 400.588 233.277 400.588 236.949V392.585C400.588 396.251 398.638 399.639 395.473 401.472L261.115 479.295C257.95 481.129 254.05 481.129 250.885 479.295L116.527 401.472C113.362 399.639 111.412 396.251 111.412 392.585V236.939C111.412 233.273 113.362 229.885 116.527 228.052L210.992 173.336V152.007L98.1146 217.387C94.9497 219.22 93 222.608 93 226.275V403.25C93 406.916 94.9497 410.304 98.1146 412.137L250.885 500.625C254.05 502.458 257.95 502.458 261.115 500.625L413.885 412.137C417.05 410.304 419 406.916 419 403.25V226.284C419 222.612 417.045 219.221 413.874 217.389L300.649 152.007Z" fill="#5100FF"/>
<path fill-rule="evenodd" clip-rule="evenodd" d="M300.649 152.007L300.695 173.336L395.461 228.054C398.633 229.886 400.588 233.277 400.588 236.949V392.585C400.588 396.251 398.638 399.639 395.473 401.472L261.115 479.295C257.95 481.129 254.05 481.129 250.885 479.295L116.527 401.472C113.362 399.639 111.412 396.251 111.412 392.585V236.939C111.412 233.273 113.362 229.885 116.527 228.052L210.992 173.336V152.007L98.1146 217.387C94.9497 219.22 93 222.608 93 226.275V403.25C93 406.916 94.9497 410.304 98.1146 412.137L250.885 500.625C254.05 502.458 257.95 502.458 261.115 500.625L413.885 412.137C417.05 410.304 419 406.916 419 403.25V226.284C419 222.612 417.045 219.221 413.874 217.389L300.649 152.007Z" fill="url(#paint7_linear_26_22)"/>
<path fill-rule="evenodd" clip-rule="evenodd" d="M379.365 374.888V287.877C375.446 286.815 369.528 289.917 361.024 294.374C352.012 299.097 340.095 305.343 324.575 309.768C276.35 325.933 223.314 301.059 209.528 293.847C207.202 292.63 205.041 291.234 202.785 289.891C191.75 283.32 155.722 264.97 133.093 289.93C133.093 318.253 132.928 346.563 133.093 374.888C133.093 380.754 136.212 386.175 141.276 389.108L248.045 450.95C253.109 453.884 259.348 453.884 264.412 450.95L371.181 389.108C376.245 386.175 379.365 380.754 379.365 374.888Z" fill="#5100FF"/>
<path fill-rule="evenodd" clip-rule="evenodd" d="M379.365 374.888V287.877C375.446 286.815 369.528 289.917 361.024 294.374C352.012 299.097 340.095 305.343 324.575 309.768C276.35 325.933 223.314 301.059 209.528 293.847C207.202 292.63 205.041 291.234 202.785 289.891C191.75 283.32 155.722 264.97 133.093 289.93C133.093 318.253 132.928 346.563 133.093 374.888C133.093 380.754 136.212 386.175 141.276 389.108L248.045 450.95C253.109 453.884 259.348 453.884 264.412 450.95L371.181 389.108C376.245 386.175 379.365 380.754 379.365 374.888Z" fill="url(#paint8_linear_26_22)"/>
<defs>
<linearGradient id="paint0_linear_26_22" x1="104.494" y1="164.131" x2="411.201" y2="105.801" gradientUnits="userSpaceOnUse">
<stop stop-color="#E1036E"/>
<stop offset="1" stop-color="#5100FF"/>
</linearGradient>
<linearGradient id="paint1_linear_26_22" x1="104.494" y1="164.131" x2="411.201" y2="105.801" gradientUnits="userSpaceOnUse">
<stop stop-color="#E1036E"/>
<stop offset="1" stop-color="#5100FF"/>
</linearGradient>
<linearGradient id="paint2_linear_26_22" x1="104.494" y1="164.131" x2="411.201" y2="105.801" gradientUnits="userSpaceOnUse">
<stop stop-color="#E1036E"/>
<stop offset="1" stop-color="#5100FF"/>
</linearGradient>
<linearGradient id="paint3_linear_26_22" x1="104.494" y1="164.131" x2="411.201" y2="105.801" gradientUnits="userSpaceOnUse">
<stop stop-color="#E1036E"/>
<stop offset="1" stop-color="#5100FF"/>
</linearGradient>
<linearGradient id="paint4_linear_26_22" x1="104.494" y1="164.131" x2="411.201" y2="105.801" gradientUnits="userSpaceOnUse">
<stop stop-color="#E1036E"/>
<stop offset="1" stop-color="#5100FF"/>
</linearGradient>
<linearGradient id="paint5_linear_26_22" x1="104.494" y1="164.131" x2="411.201" y2="105.801" gradientUnits="userSpaceOnUse">
<stop stop-color="#E1036E"/>
<stop offset="1" stop-color="#5100FF"/>
</linearGradient>
<linearGradient id="paint6_linear_26_22" x1="104.494" y1="164.131" x2="411.201" y2="105.801" gradientUnits="userSpaceOnUse">
<stop stop-color="#E1036E"/>
<stop offset="1" stop-color="#5100FF"/>
</linearGradient>
<linearGradient id="paint7_linear_26_22" x1="104.494" y1="164.131" x2="411.201" y2="105.801" gradientUnits="userSpaceOnUse">
<stop stop-color="#E1036E"/>
<stop offset="1" stop-color="#5100FF"/>
</linearGradient>
<linearGradient id="paint8_linear_26_22" x1="104.494" y1="164.131" x2="411.201" y2="105.801" gradientUnits="userSpaceOnUse">
<stop stop-color="#E1036E"/>
<stop offset="1" stop-color="#5100FF"/>
</linearGradient>
</defs>
</svg>
