<svg width="160" height="240" viewBox="0 0 160 240" fill="none" xmlns="http://www.w3.org/2000/svg">
<path fill-rule="evenodd" clip-rule="evenodd" d="M38.766 40.2115C38.956 45.0315 41.806 47.6315 46.576 47.4915C46.8447 47.4851 47.1134 47.4869 47.4318 47.4891C47.6111 47.4902 47.8062 47.4915 48.026 47.4915L48.036 47.5015C48.036 49.5398 48.0344 51.5667 48.0328 53.5851L48.0328 53.5883V53.5895C48.0289 58.5001 47.6549 69.6511 47.6743 74.5H57.6743L57.6398 53.0613C57.6429 50.1018 57.6743 46.9604 57.6743 44C57.6743 43.3358 57.7191 42.6631 57.6743 42C57.5943 40.87 56.816 40.2815 55.696 40.2815C55.291 40.2815 54.886 40.2765 54.481 40.2715C54.076 40.2665 53.671 40.2615 53.266 40.2615C49.276 40.2215 47.946 38.6515 48.486 34.4515H110.486L110.496 34.4715C111.126 38.0915 109.506 40.1415 106.016 40.2815C103.003 40.3949 101.496 41.9915 101.496 45.0715L101.5 48.927V74H110.674C110.684 69.8645 110.94 59.938 110.93 55.8025C110.924 53.6422 110.919 51.4819 110.916 49.3215V47.4815C111.165 47.4815 111.381 47.4775 111.575 47.4739C111.911 47.4676 112.183 47.4625 112.456 47.4815C117.196 47.8015 120.146 45.0715 120.186 40.3015C120.195 39.1529 120.198 38.0042 120.201 36.8556C120.205 35.3242 120.209 33.7929 120.226 32.2615C120.276 27.3115 118.086 25.0115 113.126 25.0115C90.436 24.9915 67.756 25.0015 45.076 25.0115C41.156 25.0115 38.816 27.2815 38.726 31.2415C38.656 34.2315 38.646 37.2215 38.766 40.2115Z" fill="#D9D9D9"/>
<path d="M79.376 0.0425166C86.166 0.0425166 92.956 0.162517 99.746 0.00251664C105.156 -0.117483 108.216 4.07252 106.756 8.59252C105.476 12.5525 104.316 16.5625 103.166 20.5725C102.776 21.9325 101.916 22.2125 100.646 22.1925C95.106 22.1125 89.556 22.0525 84.016 22.0725C75.546 22.1025 67.076 22.1425 58.616 22.3025C56.826 22.3425 56.026 21.6925 55.586 20.0725C54.426 15.7625 53.086 11.4925 52.026 7.15252C51.166 3.65252 53.376 0.702517 56.956 0.202517C57.876 0.0725166 58.816 0.0325166 59.746 0.0325166C66.286 0.0225166 72.826 0.0325166 79.366 0.0325166C79.366 0.0325166 79.366 0.0325166 79.366 0.0425166H79.376Z" fill="#D9D9D9"/>
<path d="M61.6458 112.773C61.6658 118.393 56.9758 123.193 51.4058 123.263C45.6458 123.323 40.6458 118.363 40.6658 112.593C40.6758 107.203 45.5358 102.423 51.0258 102.413C56.6858 102.393 61.6358 107.223 61.6558 112.773H61.6458Z" fill="#D9D9D9"/>
<path d="M79.7559 42.2825C83.8659 42.2825 87.9659 42.3125 92.0759 42.2725C93.7959 42.2525 94.5959 42.7725 94.5859 44.7325C94.5859 49.8125 94.4359 50.0525 89.2759 50.0425C82.2459 50.0325 75.2159 50.0425 68.1859 50.0425C65.3959 50.0425 64.5459 49.2025 64.4859 46.4025C64.3959 42.4025 64.5159 42.2725 68.5559 42.2625C72.2859 42.2625 76.0259 42.2625 79.7559 42.2625V42.2925V42.2825Z" fill="#D9D9D9"/>
<path d="M75.3858 100.392C75.3658 103.342 73.0058 105.692 70.0558 105.702C66.9258 105.702 64.4758 103.302 64.4658 100.192C64.4558 97.3425 67.1258 94.7725 70.0358 94.8425C73.0058 94.9025 75.4058 97.4025 75.3758 100.402L75.3858 100.392Z" fill="#D9D9D9"/>
<path d="M108.366 123.353C106.016 123.353 103.876 121.183 103.876 118.783C103.876 116.253 105.846 114.313 108.396 114.323C110.896 114.333 112.856 116.323 112.866 118.853C112.886 121.323 110.866 123.343 108.366 123.353Z" fill="#D9D9D9"/>
<path d="M95.1643 137.03C92.8143 137.03 90.6743 134.86 90.6743 132.46C90.6743 129.93 92.6443 127.99 95.1943 128C97.6943 128.01 99.6543 130 99.6643 132.53C99.6843 135 97.6643 137.02 95.1643 137.03Z" fill="#D9D9D9"/>
<path fill-rule="evenodd" clip-rule="evenodd" d="M101.499 68.7017L101.521 79.094L147.843 105.754C149.393 106.646 150.349 108.299 150.349 110.087V185.917C150.349 187.703 149.396 189.354 147.849 190.247L82.1743 228.164C80.6273 229.057 78.7213 229.057 77.1743 228.164L11.5 190.247C9.95299 189.354 9 187.703 9 185.917V110.083C9 108.297 9.953 106.646 11.5 105.753L57.6743 79.094V68.7017L2.49999 100.557C0.95299 101.45 0 103.1 0 104.887V191.113C0 192.9 0.952996 194.55 2.5 195.443L77.1743 238.557C78.7213 239.45 80.6273 239.45 82.1743 238.557L156.849 195.443C158.396 194.55 159.349 192.9 159.349 191.113V104.891C159.349 103.102 158.393 101.45 156.843 100.558L101.499 68.7017Z" fill="#D9D9D9"/>
<path fill-rule="evenodd" clip-rule="evenodd" d="M140.363 177.393V135C138.448 134.482 135.555 135.994 131.398 138.165C126.993 140.467 121.168 143.51 113.582 145.666C91.3096 153.107 66.9381 142.698 58.6336 138.564C56.6348 137.568 54.7621 136.351 52.8091 135.269C46.3283 131.677 30.3061 124.653 19.9856 136C19.9856 149.799 19.9048 163.593 19.9856 177.393C19.9856 180.252 21.5104 182.893 23.9856 184.322L76.1743 214.453C78.6495 215.882 81.6991 215.882 84.1743 214.453L136.363 184.322C138.838 182.893 140.363 180.252 140.363 177.393Z" fill="#D9D9D9"/>
</svg>
